<svg width="20" height="21" viewBox="0 0 20 21" fill="none" xmlns="http://www.w3.org/2000/svg">
<path fill-rule="evenodd" clip-rule="evenodd" d="M1 10.4067C1 6.8116 1 5.01403 1.85669 3.71929C2.23925 3.14113 2.73439 2.64598 3.31255 2.26343C4.60729 1.40674 6.40486 1.40674 10 1.40674C13.5951 1.40674 15.3927 1.40674 16.6874 2.26343C17.2656 2.64598 17.7608 3.14113 18.1433 3.71929C19 5.01403 19 6.8116 19 10.4067C19 14.0019 19 15.7994 18.1433 17.0942C17.7608 17.6723 17.2656 18.1675 16.6874 18.55C15.3927 19.4067 13.5951 19.4067 10 19.4067C6.40486 19.4067 4.60729 19.4067 3.31255 18.55C2.73439 18.1675 2.23925 17.6723 1.85669 17.0942C1 15.7994 1 14.0019 1 10.4067ZM14.6593 10.407C14.6593 12.9803 12.5732 15.0664 9.99984 15.0664C7.42652 15.0664 5.34043 12.9803 5.34043 10.407C5.34043 7.83364 7.42652 5.74756 9.99984 5.74756C12.5732 5.74756 14.6593 7.83364 14.6593 10.407ZM9.99984 13.49C11.7025 13.49 13.0828 12.1097 13.0828 10.407C13.0828 8.70427 11.7025 7.32396 9.99984 7.32396C8.29714 7.32396 6.91684 8.70427 6.91684 10.407C6.91684 12.1097 8.29714 13.49 9.99984 13.49ZM14.8433 6.60829C15.4479 6.60829 15.9381 6.11812 15.9381 5.51346C15.9381 4.90881 15.4479 4.41864 14.8433 4.41864C14.2386 4.41864 13.7485 4.90881 13.7485 5.51346C13.7485 6.11812 14.2386 6.60829 14.8433 6.60829Z" fill="white"/>
</svg>
