<svg width="37" height="38" viewBox="0 0 37 38" fill="none" xmlns="http://www.w3.org/2000/svg">
<path d="M11.2367 18.761C12.757 21.9004 15.2955 24.4324 18.4387 25.9445C18.6706 26.0543 18.927 26.1019 19.1828 26.0824C19.4386 26.063 19.685 25.9773 19.8976 25.8337L24.5143 22.7498C24.7182 22.6115 24.9539 22.5271 25.1994 22.5045C25.4448 22.4819 25.6919 22.5218 25.9177 22.6206L34.5601 26.3323C34.8555 26.4553 35.1023 26.6719 35.2624 26.9489C35.4226 27.2258 35.4873 27.5478 35.4465 27.8651C35.1726 30.003 34.1291 31.9679 32.5111 33.3921C30.8932 34.8163 28.8118 35.6021 26.6564 35.6026C19.9956 35.6026 13.6076 32.9566 8.89766 28.2467C4.18775 23.5368 1.54175 17.1488 1.54175 10.488C1.54223 8.33253 2.32808 6.25112 3.75225 4.63321C5.17642 3.0153 7.14132 1.97175 9.27928 1.69783C9.5966 1.65707 9.91853 1.72176 10.1955 1.88192C10.4724 2.04209 10.6891 2.28886 10.812 2.58423L14.5238 11.2451C14.6203 11.4673 14.6607 11.7099 14.6414 11.9514C14.6221 12.193 14.5436 12.426 14.413 12.6301L11.3291 17.3206C11.1918 17.5328 11.1112 17.7766 11.095 18.0288C11.0789 18.281 11.1277 18.5331 11.2367 18.761V18.761Z" stroke="#1B1311" stroke-width="1.5" stroke-linecap="round" stroke-linejoin="round"/>
</svg>
