<svg width="37" height="37" viewBox="0 0 37 37" fill="none" xmlns="http://www.w3.org/2000/svg">
<path d="M11.2366 18.0604C12.7568 21.1998 15.2954 23.7318 18.4386 25.244C18.6705 25.3537 18.9269 25.4013 19.1827 25.3818C19.4385 25.3624 19.6849 25.2767 19.8975 25.1332L24.5141 22.0492C24.7181 21.9109 24.9538 21.8265 25.1992 21.8039C25.4447 21.7813 25.6918 21.8212 25.9176 21.92L34.56 25.6318C34.8554 25.7547 35.1021 25.9713 35.2623 26.2483C35.4225 26.5252 35.4872 26.8472 35.4464 27.1645C35.1725 29.3024 34.1289 31.2673 32.511 32.6915C30.8931 34.1157 28.8117 34.9015 26.6563 34.902C19.9955 34.902 13.6074 32.256 8.89754 27.5461C4.18763 22.8362 1.54163 16.4482 1.54163 9.78737C1.54211 7.63194 2.32796 5.55053 3.75213 3.93262C5.1763 2.31471 7.1412 1.27116 9.27915 0.997242C9.59648 0.956481 9.91841 1.02116 10.1954 1.18133C10.4723 1.3415 10.6889 1.58827 10.8119 1.88364L14.5237 10.5445C14.6202 10.7667 14.6606 11.0093 14.6413 11.2508C14.6219 11.4924 14.5435 11.7254 14.4129 11.9295L11.329 16.62C11.1917 16.8322 11.1111 17.076 11.0949 17.3282C11.0787 17.5804 11.1275 17.8325 11.2366 18.0604V18.0604Z" stroke="white" stroke-width="1.2" stroke-linecap="round" stroke-linejoin="round"/>
</svg>
