<svg width="20" height="21" viewBox="0 0 20 21" fill="none" xmlns="http://www.w3.org/2000/svg">
<path d="M3 7.86759C3 7.11175 3.15837 6.36131 3.4769 5.61807C3.79543 4.87483 4.25073 4.18378 4.8446 3.54852C5.43847 2.91326 6.2177 2.39677 7.1841 2.00085C8.15049 1.60494 9.22126 1.40698 10.3964 1.40698C12.304 1.40698 13.8697 1.99546 15.0934 3.1706C16.3171 4.34575 16.929 5.73145 16.929 7.3277C16.929 9.37926 16.4107 11.0745 15.3723 12.4116C14.334 13.7487 12.9932 14.4182 11.3502 14.4182C10.8103 14.4182 10.3028 14.2922 9.82952 14.0403C9.35623 13.7883 9.0233 13.4824 8.83074 13.1225L8.1109 15.9658C8.05151 16.1944 7.97233 16.4247 7.87695 16.6587C7.78157 16.8926 7.67539 17.1176 7.56201 17.3335C7.44864 17.5495 7.33346 17.7528 7.22009 17.9454C7.10671 18.138 6.99154 18.3179 6.87816 18.4853C6.76479 18.6527 6.66581 18.7948 6.58123 18.9082C6.49664 19.0216 6.41926 19.1206 6.34728 19.2051L6.2393 19.3491C6.20331 19.3977 6.15472 19.4157 6.09533 19.4031C6.03594 19.3905 5.99995 19.3545 5.98735 19.2951C5.98735 19.2825 5.97836 19.1997 5.96036 19.0432C5.94236 18.8866 5.92437 18.7228 5.90637 18.5483C5.88838 18.3737 5.87038 18.1488 5.85238 17.8734C5.83439 17.5981 5.82899 17.3299 5.83439 17.0726C5.83979 16.8153 5.85778 16.5291 5.88838 16.2178C5.91897 15.9064 5.96396 15.6185 6.02335 15.354C6.15472 14.7907 6.59922 12.9119 7.35506 9.72119C7.25968 9.52863 7.1805 9.29828 7.12111 9.02833C7.06172 8.75839 7.03113 8.53884 7.03113 8.37148L7.01313 8.10154C7.01313 7.3331 7.20749 6.69424 7.59801 6.18495C7.98852 5.67566 8.45822 5.42011 9.0107 5.42011C9.4552 5.42011 9.79893 5.56768 10.0455 5.86102C10.292 6.15436 10.4144 6.52328 10.4144 6.96778C10.4144 7.24312 10.364 7.58325 10.2614 7.98456C10.1589 8.38587 10.0239 8.84837 9.85652 9.37026C9.68915 9.89215 9.56858 10.3151 9.4966 10.639C9.37602 11.1789 9.4822 11.6468 9.81153 12.0427C10.1409 12.4386 10.5818 12.6366 11.1342 12.6366C12.0826 12.6366 12.8655 12.1003 13.4827 11.0259C14.1 9.95154 14.4095 8.65402 14.4095 7.12975C14.4095 5.9654 14.0316 5.0152 13.2758 4.27736C12.5199 3.53952 11.4636 3.1706 10.1085 3.1706C8.59679 3.1706 7.36946 3.6565 6.42826 4.62829C5.48706 5.60008 5.01556 6.76442 5.01556 8.11953C5.01556 8.92396 5.24412 9.60061 5.69942 10.1531C5.85598 10.3331 5.90277 10.5256 5.84339 10.729C5.81999 10.7884 5.784 10.9269 5.73541 11.1429C5.68682 11.3588 5.65083 11.4974 5.62743 11.5568C5.60404 11.6882 5.54285 11.7763 5.44747 11.8177C5.35209 11.8591 5.24412 11.8573 5.12354 11.8087C4.41629 11.5208 3.88541 11.0259 3.53089 10.3241C3.17636 9.62221 3 8.80338 3 7.86759Z" fill="white"/>
</svg>
