<svg width="20" height="20" viewBox="0 0 20 20" fill="none" xmlns="http://www.w3.org/2000/svg">
<path d="M3 7.46051C3 6.70468 3.15837 5.95424 3.4769 5.211C3.79543 4.46776 4.25073 3.77671 4.8446 3.14145C5.43847 2.50618 6.2177 1.98969 7.1841 1.59378C8.15049 1.19787 9.22126 0.999908 10.3964 0.999908C12.304 0.999908 13.8697 1.58838 15.0934 2.76353C16.3171 3.93867 16.929 5.32437 16.929 6.92063C16.929 8.97219 16.4107 10.6674 15.3723 12.0045C14.334 13.3416 12.9932 14.0111 11.3502 14.0111C10.8103 14.0111 10.3028 13.8851 9.82952 13.6332C9.35623 13.3812 9.0233 13.0753 8.83074 12.7154L8.1109 15.5588C8.05151 15.7873 7.97233 16.0177 7.87695 16.2516C7.78157 16.4856 7.67539 16.7105 7.56201 16.9265C7.44864 17.1424 7.33346 17.3458 7.22009 17.5383C7.10671 17.7309 6.99154 17.9109 6.87816 18.0782C6.76479 18.2456 6.66581 18.3877 6.58123 18.5011C6.49664 18.6145 6.41926 18.7135 6.34728 18.7981L6.2393 18.942C6.20331 18.9906 6.15472 19.0086 6.09533 18.996C6.03594 18.9834 5.99995 18.9474 5.98735 18.888C5.98735 18.8754 5.97836 18.7927 5.96036 18.6361C5.94236 18.4795 5.92437 18.3158 5.90637 18.1412C5.88838 17.9666 5.87038 17.7417 5.85238 17.4663C5.83439 17.191 5.82899 16.9229 5.83439 16.6655C5.83979 16.4082 5.85778 16.122 5.88838 15.8107C5.91897 15.4994 5.96396 15.2114 6.02335 14.9469C6.15472 14.3836 6.59922 12.5048 7.35506 9.31411C7.25968 9.12155 7.1805 8.8912 7.12111 8.62126C7.06172 8.35132 7.03113 8.13177 7.03113 7.9644L7.01313 7.69446C7.01313 6.92603 7.20749 6.28717 7.59801 5.77788C7.98852 5.26859 8.45822 5.01304 9.0107 5.01304C9.4552 5.01304 9.79893 5.16061 10.0455 5.45395C10.292 5.74728 10.4144 6.1162 10.4144 6.56071C10.4144 6.83605 10.364 7.17617 10.2614 7.57749C10.1589 7.9788 10.0239 8.4413 9.85652 8.96319C9.68915 9.48507 9.56858 9.90798 9.4966 10.2319C9.37602 10.7718 9.4822 11.2397 9.81153 11.6356C10.1409 12.0315 10.5818 12.2295 11.1342 12.2295C12.0826 12.2295 12.8655 11.6932 13.4827 10.6188C14.1 9.54446 14.4095 8.24694 14.4095 6.72267C14.4095 5.55832 14.0316 4.60813 13.2758 3.87029C12.5199 3.13245 11.4636 2.76353 10.1085 2.76353C8.59679 2.76353 7.36946 3.24942 6.42826 4.22121C5.48706 5.193 5.01556 6.35735 5.01556 7.71246C5.01556 8.51688 5.24412 9.19354 5.69942 9.74602C5.85598 9.92598 5.90277 10.1185 5.84339 10.3219C5.81999 10.3813 5.784 10.5199 5.73541 10.7358C5.68682 10.9518 5.65083 11.0903 5.62743 11.1497C5.60404 11.2811 5.54285 11.3693 5.44747 11.4107C5.35209 11.452 5.24412 11.4502 5.12354 11.4017C4.41629 11.1137 3.88541 10.6188 3.53089 9.91698C3.17636 9.21513 3 8.39631 3 7.46051Z" fill="#0B1C56"/>
</svg>
